<mxfile host="Electron" agent="Mozilla/5.0 (Windows NT 10.0; Win64; x64) AppleWebKit/537.36 (KHTML, like Gecko) draw.io/25.0.2 Chrome/128.0.6613.186 Electron/32.2.5 Safari/537.36" version="25.0.2">
  <diagram id="C5RBs43oDa-KdzZeNtuy" name="Page-1">
    <mxGraphModel dx="2390" dy="1393" grid="1" gridSize="10" guides="1" tooltips="1" connect="1" arrows="1" fold="1" page="1" pageScale="1" pageWidth="827" pageHeight="1169" math="0" shadow="0">
      <root>
        <mxCell id="WIyWlLk6GJQsqaUBKTNV-0" />
        <mxCell id="WIyWlLk6GJQsqaUBKTNV-1" parent="WIyWlLk6GJQsqaUBKTNV-0" />
        <mxCell id="NhaR2hyR2R-Psau6ybFk-0" value="&lt;p style=&quot;margin:0px;margin-top:4px;text-align:center;&quot;&gt;&lt;b&gt;UserProfile&lt;/b&gt;&lt;/p&gt;&lt;hr size=&quot;1&quot; style=&quot;border-style:solid;&quot;&gt;&lt;p style=&quot;margin:0px;margin-left:4px;&quot;&gt;- first_name: CharField&lt;/p&gt;&lt;p style=&quot;margin:0px;margin-left:4px;&quot;&gt;- last_name: CharField&lt;br&gt;&lt;/p&gt;&lt;p style=&quot;margin:0px;margin-left:4px;&quot;&gt;- national_code:&amp;nbsp;&lt;span style=&quot;background-color: initial;&quot;&gt;CharField&lt;/span&gt;&lt;/p&gt;&lt;p style=&quot;margin:0px;margin-left:4px;&quot;&gt;- gender: GENDER_CHOICES&lt;/p&gt;&lt;p style=&quot;margin:0px;margin-left:4px;&quot;&gt;- passport_number:&amp;nbsp;&lt;span style=&quot;background-color: initial;&quot;&gt;CharField&lt;/span&gt;&lt;/p&gt;&lt;p style=&quot;margin:0px;margin-left:4px;&quot;&gt;- passport_expiry_date: DateField&lt;/p&gt;&lt;p style=&quot;margin:0px;margin-left:4px;&quot;&gt;- is_foreign: BooleanField&lt;/p&gt;&lt;p style=&quot;margin:0px;margin-left:4px;&quot;&gt;- date_of_birth: DateField&lt;/p&gt;&lt;p style=&quot;margin:0px;margin-left:4px;&quot;&gt;- landline_number:&amp;nbsp;&lt;span style=&quot;background-color: initial;&quot;&gt;CharField&lt;/span&gt;&lt;/p&gt;&lt;p style=&quot;margin:0px;margin-left:4px;&quot;&gt;- mobile_number:&amp;nbsp;&lt;span style=&quot;background-color: initial;&quot;&gt;CharField&lt;/span&gt;&lt;/p&gt;&lt;p style=&quot;margin:0px;margin-left:4px;&quot;&gt;- address: TextField&lt;/p&gt;&lt;p style=&quot;margin:0px;margin-left:4px;&quot;&gt;&lt;span style=&quot;background-color: initial;&quot;&gt;- profile_picture: ImageField&lt;/span&gt;&lt;/p&gt;" style="verticalAlign=top;align=left;overflow=fill;html=1;whiteSpace=wrap;" parent="WIyWlLk6GJQsqaUBKTNV-1" vertex="1">
          <mxGeometry x="174" y="20" width="210" height="210" as="geometry" />
        </mxCell>
        <mxCell id="NhaR2hyR2R-Psau6ybFk-1" value="&lt;p style=&quot;margin:0px;margin-top:4px;text-align:center;&quot;&gt;&lt;i&gt;&amp;lt;&amp;lt;Enumeration&amp;gt;&amp;gt;&lt;/i&gt;&lt;br&gt;&lt;b&gt;GENDER_CHOICES&lt;/b&gt;&lt;/p&gt;&lt;hr size=&quot;1&quot; style=&quot;border-style:solid;&quot;&gt;&lt;p style=&quot;margin:0px;margin-left:4px;&quot;&gt;Male&lt;br&gt;Female&lt;/p&gt;" style="verticalAlign=top;align=left;overflow=fill;html=1;whiteSpace=wrap;" parent="WIyWlLk6GJQsqaUBKTNV-1" vertex="1">
          <mxGeometry x="22" y="40" width="122" height="80" as="geometry" />
        </mxCell>
        <mxCell id="NhaR2hyR2R-Psau6ybFk-2" value="&lt;p style=&quot;margin:0px;margin-top:4px;text-align:center;&quot;&gt;&lt;b&gt;UserBankInfo&lt;/b&gt;&lt;/p&gt;&lt;hr size=&quot;1&quot; style=&quot;border-style:solid;&quot;&gt;&lt;p style=&quot;margin:0px;margin-left:4px;&quot;&gt;- user: UserProfile&lt;/p&gt;&lt;p style=&quot;margin:0px;margin-left:4px;&quot;&gt;- card_number: CharField&lt;br&gt;&lt;/p&gt;&lt;p style=&quot;margin:0px;margin-left:4px;&quot;&gt;- card_number:&amp;nbsp;&lt;span style=&quot;background-color: initial;&quot;&gt;CharField&lt;/span&gt;&lt;/p&gt;&lt;p style=&quot;margin:0px;margin-left:4px;&quot;&gt;- iban:&amp;nbsp;&lt;span style=&quot;background-color: initial;&quot;&gt;CharField&lt;/span&gt;&lt;/p&gt;" style="verticalAlign=top;align=left;overflow=fill;html=1;whiteSpace=wrap;" parent="WIyWlLk6GJQsqaUBKTNV-1" vertex="1">
          <mxGeometry x="464" y="80" width="210" height="90" as="geometry" />
        </mxCell>
        <mxCell id="NhaR2hyR2R-Psau6ybFk-3" value="&lt;p style=&quot;margin:0px;margin-top:4px;text-align:center;&quot;&gt;&lt;b&gt;UserProfileService&lt;/b&gt;&lt;/p&gt;&lt;hr size=&quot;1&quot; style=&quot;border-style:solid;&quot;&gt;&lt;p style=&quot;margin:0px;margin-left:4px;&quot;&gt;+ create_user_profile(data): UserProfile&lt;/p&gt;&lt;p style=&quot;margin:0px;margin-left:4px;&quot;&gt;+&amp;nbsp;&lt;span style=&quot;background-color: initial;&quot;&gt;update_user_profile(&lt;/span&gt;&lt;span style=&quot;background-color: initial;&quot;&gt;user_profile,&amp;nbsp;&lt;/span&gt;&lt;span style=&quot;background-color: initial;&quot;&gt;data): UserProfile&lt;/span&gt;&lt;/p&gt;&lt;p style=&quot;margin:0px;margin-left:4px;&quot;&gt;&lt;span style=&quot;background-color: initial;&quot;&gt;+&amp;nbsp;&lt;/span&gt;&lt;span style=&quot;background-color: initial;&quot;&gt;delete_user_profile(user_profile): void&lt;/span&gt;&lt;/p&gt;&lt;p style=&quot;margin:0px;margin-left:4px;&quot;&gt;&lt;span style=&quot;background-color: initial;&quot;&gt;+ get_all_profiles(): List&amp;lt;UserProfile&amp;gt;&lt;/span&gt;&lt;/p&gt;&lt;p style=&quot;margin:0px;margin-left:4px;&quot;&gt;&lt;span style=&quot;background-color: initial;&quot;&gt;+ get_profile_by_national_code(national_code): UserProfile&lt;/span&gt;&lt;/p&gt;" style="verticalAlign=top;align=left;overflow=fill;html=1;whiteSpace=wrap;" parent="WIyWlLk6GJQsqaUBKTNV-1" vertex="1">
          <mxGeometry x="10" y="730" width="340" height="110" as="geometry" />
        </mxCell>
        <mxCell id="NhaR2hyR2R-Psau6ybFk-4" value="&lt;p style=&quot;margin:0px;margin-top:4px;text-align:center;&quot;&gt;&lt;b&gt;UserBankInfoService&lt;/b&gt;&lt;/p&gt;&lt;hr size=&quot;1&quot; style=&quot;border-style:solid;&quot;&gt;&lt;p style=&quot;margin:0px;margin-left:4px;&quot;&gt;+ create_user_bank_info(data): UserBankInfo&lt;/p&gt;&lt;p style=&quot;margin:0px;margin-left:4px;&quot;&gt;+&amp;nbsp;&lt;span style=&quot;background-color: initial;&quot;&gt;update_&lt;/span&gt;user_bank_info&lt;span style=&quot;background-color: initial;&quot;&gt;(&lt;/span&gt;&lt;span style=&quot;background-color: initial;&quot;&gt;user_bank_info,&amp;nbsp;&lt;/span&gt;&lt;span style=&quot;background-color: initial;&quot;&gt;data):&amp;nbsp;&lt;/span&gt;&lt;span style=&quot;background-color: initial;&quot;&gt;UserBankInfo&lt;/span&gt;&lt;/p&gt;&lt;p style=&quot;margin:0px;margin-left:4px;&quot;&gt;&lt;span style=&quot;background-color: initial;&quot;&gt;+&amp;nbsp;&lt;/span&gt;&lt;span style=&quot;background-color: initial;&quot;&gt;delete_&lt;/span&gt;user_bank_info&lt;span style=&quot;background-color: initial;&quot;&gt;(user_bank_info): void&lt;/span&gt;&lt;/p&gt;&lt;p style=&quot;margin:0px;margin-left:4px;&quot;&gt;&lt;span style=&quot;background-color: initial;&quot;&gt;+ get_all_bank_infos(): List&amp;lt;&lt;/span&gt;&lt;span style=&quot;background-color: initial;&quot;&gt;UserBankInfo&lt;/span&gt;&lt;span style=&quot;background-color: initial;&quot;&gt;&amp;gt;&lt;/span&gt;&lt;/p&gt;&lt;p style=&quot;margin:0px;margin-left:4px;&quot;&gt;&lt;span style=&quot;background-color: initial;&quot;&gt;+ get_bank_info_by_card_number(card_number): UserBankInfo&lt;/span&gt;&lt;/p&gt;" style="verticalAlign=top;align=left;overflow=fill;html=1;whiteSpace=wrap;" parent="WIyWlLk6GJQsqaUBKTNV-1" vertex="1">
          <mxGeometry x="365" y="730" width="355" height="110" as="geometry" />
        </mxCell>
        <mxCell id="NhaR2hyR2R-Psau6ybFk-7" value="&lt;p style=&quot;margin:0px;margin-top:4px;text-align:center;&quot;&gt;&lt;b&gt;UserProfileSerializer&lt;/b&gt;&lt;/p&gt;&lt;hr size=&quot;1&quot; style=&quot;border-style:solid;&quot;&gt;&lt;p style=&quot;margin:0px;margin-left:4px;&quot;&gt;+ model: UserProfile&lt;/p&gt;&lt;p style=&quot;margin:0px;margin-left:4px;&quot;&gt;+ fields: &#39;__all__&#39;&lt;/p&gt;" style="verticalAlign=top;align=left;overflow=fill;html=1;whiteSpace=wrap;" parent="WIyWlLk6GJQsqaUBKTNV-1" vertex="1">
          <mxGeometry x="190" y="410" width="210" height="70" as="geometry" />
        </mxCell>
        <mxCell id="NhaR2hyR2R-Psau6ybFk-8" value="&lt;p style=&quot;margin:0px;margin-top:4px;text-align:center;&quot;&gt;&lt;b&gt;UserBankInfoSerializer&lt;/b&gt;&lt;/p&gt;&lt;hr size=&quot;1&quot; style=&quot;border-style:solid;&quot;&gt;&lt;p style=&quot;margin:0px;margin-left:4px;&quot;&gt;+ model: UserBankInfo&lt;/p&gt;&lt;p style=&quot;margin:0px;margin-left:4px;&quot;&gt;+ fields: &#39;__all__&#39;&lt;/p&gt;" style="verticalAlign=top;align=left;overflow=fill;html=1;whiteSpace=wrap;" parent="WIyWlLk6GJQsqaUBKTNV-1" vertex="1">
          <mxGeometry x="520" y="440" width="210" height="70" as="geometry" />
        </mxCell>
        <mxCell id="NhaR2hyR2R-Psau6ybFk-10" value="&lt;p style=&quot;margin:0px;margin-top:4px;text-align:center;&quot;&gt;&lt;b&gt;UserProfileView&lt;/b&gt;&lt;/p&gt;&lt;hr size=&quot;1&quot; style=&quot;border-style:solid;&quot;&gt;&lt;p style=&quot;margin:0px;margin-left:4px;&quot;&gt;+ post(request): Response&lt;/p&gt;&lt;p style=&quot;margin:0px;margin-left:4px;&quot;&gt;+&amp;nbsp;&lt;span style=&quot;background-color: initial;&quot;&gt;put(request, pk): Response&lt;/span&gt;&lt;/p&gt;&lt;p style=&quot;margin:0px;margin-left:4px;&quot;&gt;&lt;span style=&quot;background-color: initial;&quot;&gt;+&amp;nbsp;&lt;/span&gt;&lt;span style=&quot;background-color: initial;&quot;&gt;delete(request, pk): Response&lt;/span&gt;&lt;/p&gt;" style="verticalAlign=top;align=left;overflow=fill;html=1;whiteSpace=wrap;" parent="WIyWlLk6GJQsqaUBKTNV-1" vertex="1">
          <mxGeometry x="190" y="544" width="210" height="80" as="geometry" />
        </mxCell>
        <mxCell id="NhaR2hyR2R-Psau6ybFk-11" value="&lt;p style=&quot;margin:0px;margin-top:4px;text-align:center;&quot;&gt;&lt;b&gt;UserBankInfoView&lt;/b&gt;&lt;/p&gt;&lt;hr size=&quot;1&quot; style=&quot;border-style:solid;&quot;&gt;&lt;p style=&quot;margin: 0px 0px 0px 4px;&quot;&gt;+ post(request): Response&lt;/p&gt;&lt;p style=&quot;margin: 0px 0px 0px 4px;&quot;&gt;+&amp;nbsp;&lt;span style=&quot;background-color: initial;&quot;&gt;put(request, pk): Response&lt;/span&gt;&lt;/p&gt;&lt;p style=&quot;margin: 0px 0px 0px 4px;&quot;&gt;&lt;span style=&quot;background-color: initial;&quot;&gt;+&amp;nbsp;&lt;/span&gt;&lt;span style=&quot;background-color: initial;&quot;&gt;delete(request, pk): Response&lt;/span&gt;&lt;/p&gt;" style="verticalAlign=top;align=left;overflow=fill;html=1;whiteSpace=wrap;" parent="WIyWlLk6GJQsqaUBKTNV-1" vertex="1">
          <mxGeometry x="520" y="580" width="210" height="80" as="geometry" />
        </mxCell>
        <mxCell id="NhaR2hyR2R-Psau6ybFk-12" value="&lt;p style=&quot;margin:0px;margin-top:4px;text-align:center;&quot;&gt;&lt;b&gt;ProfileLists&lt;/b&gt;&lt;/p&gt;&lt;hr size=&quot;1&quot; style=&quot;border-style:solid;&quot;&gt;&lt;p style=&quot;margin:0px;margin-left:4px;&quot;&gt;+ get(request): Response&lt;/p&gt;" style="verticalAlign=top;align=left;overflow=fill;html=1;whiteSpace=wrap;" parent="WIyWlLk6GJQsqaUBKTNV-1" vertex="1">
          <mxGeometry x="280" y="280" width="150" height="50" as="geometry" />
        </mxCell>
        <mxCell id="NhaR2hyR2R-Psau6ybFk-13" value="&lt;p style=&quot;margin:0px;margin-top:4px;text-align:center;&quot;&gt;&lt;b&gt;ProfileDetails&lt;/b&gt;&lt;br&gt;&lt;/p&gt;&lt;hr size=&quot;1&quot; style=&quot;border-style:solid;&quot;&gt;&lt;p style=&quot;margin:0px;margin-left:4px;&quot;&gt;+ get(request, national_code): Response&lt;br&gt;&lt;/p&gt;" style="verticalAlign=top;align=left;overflow=fill;html=1;whiteSpace=wrap;" parent="WIyWlLk6GJQsqaUBKTNV-1" vertex="1">
          <mxGeometry x="30" y="280" width="230" height="50" as="geometry" />
        </mxCell>
        <mxCell id="NhaR2hyR2R-Psau6ybFk-14" value="&lt;p style=&quot;margin:0px;margin-top:4px;text-align:center;&quot;&gt;&lt;b&gt;BankInfoLists&lt;/b&gt;&lt;/p&gt;&lt;hr size=&quot;1&quot; style=&quot;border-style:solid;&quot;&gt;&lt;p style=&quot;margin:0px;margin-left:4px;&quot;&gt;+ get(request): Response&lt;/p&gt;" style="verticalAlign=top;align=left;overflow=fill;html=1;whiteSpace=wrap;" parent="WIyWlLk6GJQsqaUBKTNV-1" vertex="1">
          <mxGeometry x="532.5" y="247" width="160" height="50" as="geometry" />
        </mxCell>
        <mxCell id="NhaR2hyR2R-Psau6ybFk-15" value="&lt;p style=&quot;margin:0px;margin-top:4px;text-align:center;&quot;&gt;&lt;b style=&quot;background-color: initial;&quot;&gt;BankInfo&lt;/b&gt;&lt;b&gt;Details&lt;/b&gt;&lt;br&gt;&lt;/p&gt;&lt;hr size=&quot;1&quot; style=&quot;border-style:solid;&quot;&gt;&lt;p style=&quot;margin:0px;margin-left:4px;&quot;&gt;+ get(request, card_number): Response&lt;br&gt;&lt;/p&gt;" style="verticalAlign=top;align=left;overflow=fill;html=1;whiteSpace=wrap;" parent="WIyWlLk6GJQsqaUBKTNV-1" vertex="1">
          <mxGeometry x="510" y="350" width="230" height="50" as="geometry" />
        </mxCell>
        <mxCell id="JuM62VpfZjrxUYvz8Qyw-0" value="" style="endArrow=open;endFill=1;endSize=12;html=1;rounded=0;" parent="WIyWlLk6GJQsqaUBKTNV-1" edge="1">
          <mxGeometry width="160" relative="1" as="geometry">
            <mxPoint x="384" y="124.72" as="sourcePoint" />
            <mxPoint x="464" y="125" as="targetPoint" />
          </mxGeometry>
        </mxCell>
        <mxCell id="JuM62VpfZjrxUYvz8Qyw-3" value="Owns" style="edgeLabel;html=1;align=center;verticalAlign=middle;resizable=0;points=[];" parent="JuM62VpfZjrxUYvz8Qyw-0" vertex="1" connectable="0">
          <mxGeometry x="-0.2121" relative="1" as="geometry">
            <mxPoint as="offset" />
          </mxGeometry>
        </mxCell>
        <mxCell id="JuM62VpfZjrxUYvz8Qyw-1" value="1" style="text;html=1;align=center;verticalAlign=middle;resizable=0;points=[];autosize=1;strokeColor=none;fillColor=none;" parent="WIyWlLk6GJQsqaUBKTNV-1" vertex="1">
          <mxGeometry x="374" y="100" width="30" height="30" as="geometry" />
        </mxCell>
        <mxCell id="JuM62VpfZjrxUYvz8Qyw-2" value="1" style="text;html=1;align=center;verticalAlign=middle;resizable=0;points=[];autosize=1;strokeColor=none;fillColor=none;" parent="WIyWlLk6GJQsqaUBKTNV-1" vertex="1">
          <mxGeometry x="426.5" y="101" width="30" height="30" as="geometry" />
        </mxCell>
        <mxCell id="JuM62VpfZjrxUYvz8Qyw-4" value="" style="endArrow=open;endFill=1;endSize=12;html=1;rounded=0;exitX=0.854;exitY=-0.015;exitDx=0;exitDy=0;exitPerimeter=0;entryX=0.25;entryY=1;entryDx=0;entryDy=0;" parent="WIyWlLk6GJQsqaUBKTNV-1" source="NhaR2hyR2R-Psau6ybFk-13" target="NhaR2hyR2R-Psau6ybFk-0" edge="1">
          <mxGeometry width="160" relative="1" as="geometry">
            <mxPoint x="430" y="180" as="sourcePoint" />
            <mxPoint x="590" y="180" as="targetPoint" />
          </mxGeometry>
        </mxCell>
        <mxCell id="JuM62VpfZjrxUYvz8Qyw-5" value="" style="endArrow=open;endFill=1;endSize=12;html=1;rounded=0;exitX=0.344;exitY=-0.043;exitDx=0;exitDy=0;entryX=0.75;entryY=1;entryDx=0;entryDy=0;exitPerimeter=0;" parent="WIyWlLk6GJQsqaUBKTNV-1" source="NhaR2hyR2R-Psau6ybFk-12" target="NhaR2hyR2R-Psau6ybFk-0" edge="1">
          <mxGeometry width="160" relative="1" as="geometry">
            <mxPoint x="236" y="289" as="sourcePoint" />
            <mxPoint x="237" y="240" as="targetPoint" />
          </mxGeometry>
        </mxCell>
        <mxCell id="JuM62VpfZjrxUYvz8Qyw-7" value="1" style="text;html=1;align=center;verticalAlign=middle;resizable=0;points=[];autosize=1;strokeColor=none;fillColor=none;" parent="WIyWlLk6GJQsqaUBKTNV-1" vertex="1">
          <mxGeometry x="226" y="257" width="30" height="30" as="geometry" />
        </mxCell>
        <mxCell id="JuM62VpfZjrxUYvz8Qyw-8" value="1" style="text;html=1;align=center;verticalAlign=middle;resizable=0;points=[];autosize=1;strokeColor=none;fillColor=none;" parent="WIyWlLk6GJQsqaUBKTNV-1" vertex="1">
          <mxGeometry x="226" y="225" width="30" height="30" as="geometry" />
        </mxCell>
        <mxCell id="JuM62VpfZjrxUYvz8Qyw-9" value="1" style="text;html=1;align=center;verticalAlign=middle;resizable=0;points=[];autosize=1;strokeColor=none;fillColor=none;" parent="WIyWlLk6GJQsqaUBKTNV-1" vertex="1">
          <mxGeometry x="333" y="255" width="30" height="30" as="geometry" />
        </mxCell>
        <mxCell id="JuM62VpfZjrxUYvz8Qyw-10" value="[*]" style="text;html=1;align=center;verticalAlign=middle;resizable=0;points=[];autosize=1;strokeColor=none;fillColor=none;" parent="WIyWlLk6GJQsqaUBKTNV-1" vertex="1">
          <mxGeometry x="333" y="223" width="30" height="30" as="geometry" />
        </mxCell>
        <mxCell id="JuM62VpfZjrxUYvz8Qyw-12" value="Use" style="endArrow=open;endSize=12;dashed=1;html=1;rounded=0;exitX=0.5;exitY=1;exitDx=0;exitDy=0;entryX=0;entryY=0.429;entryDx=0;entryDy=0;entryPerimeter=0;" parent="WIyWlLk6GJQsqaUBKTNV-1" source="NhaR2hyR2R-Psau6ybFk-13" target="NhaR2hyR2R-Psau6ybFk-7" edge="1">
          <mxGeometry width="160" relative="1" as="geometry">
            <mxPoint x="490" y="510" as="sourcePoint" />
            <mxPoint x="269" y="440" as="targetPoint" />
            <Array as="points">
              <mxPoint x="145" y="440" />
            </Array>
          </mxGeometry>
        </mxCell>
        <mxCell id="JuM62VpfZjrxUYvz8Qyw-13" value="Use" style="endArrow=open;endSize=12;dashed=1;html=1;rounded=0;exitX=0.5;exitY=1;exitDx=0;exitDy=0;entryX=0.357;entryY=0;entryDx=0;entryDy=0;entryPerimeter=0;" parent="WIyWlLk6GJQsqaUBKTNV-1" source="NhaR2hyR2R-Psau6ybFk-12" target="NhaR2hyR2R-Psau6ybFk-7" edge="1">
          <mxGeometry width="160" relative="1" as="geometry">
            <mxPoint x="363" y="360" as="sourcePoint" />
            <mxPoint x="385.2649999999999" y="400.8800000000001" as="targetPoint" />
          </mxGeometry>
        </mxCell>
        <mxCell id="JuM62VpfZjrxUYvz8Qyw-15" value="Use" style="endArrow=open;endSize=12;dashed=1;html=1;rounded=0;entryX=0.994;entryY=0.855;entryDx=0;entryDy=0;entryPerimeter=0;exitX=1.003;exitY=0.573;exitDx=0;exitDy=0;exitPerimeter=0;" parent="WIyWlLk6GJQsqaUBKTNV-1" source="NhaR2hyR2R-Psau6ybFk-7" target="NhaR2hyR2R-Psau6ybFk-0" edge="1">
          <mxGeometry width="160" relative="1" as="geometry">
            <mxPoint x="490" y="450" as="sourcePoint" />
            <mxPoint x="590" y="400" as="targetPoint" />
            <Array as="points">
              <mxPoint x="500" y="450" />
              <mxPoint x="500" y="320" />
              <mxPoint x="500" y="200" />
            </Array>
          </mxGeometry>
        </mxCell>
        <mxCell id="JuM62VpfZjrxUYvz8Qyw-16" value="Use" style="endArrow=open;endSize=12;dashed=1;html=1;rounded=0;exitX=0.5;exitY=0;exitDx=0;exitDy=0;entryX=0.5;entryY=1;entryDx=0;entryDy=0;" parent="WIyWlLk6GJQsqaUBKTNV-1" source="NhaR2hyR2R-Psau6ybFk-10" target="NhaR2hyR2R-Psau6ybFk-7" edge="1">
          <mxGeometry width="160" relative="1" as="geometry">
            <mxPoint x="450" y="460" as="sourcePoint" />
            <mxPoint x="610" y="460" as="targetPoint" />
            <mxPoint as="offset" />
          </mxGeometry>
        </mxCell>
        <mxCell id="JuM62VpfZjrxUYvz8Qyw-17" value="[*]" style="text;html=1;align=center;verticalAlign=middle;resizable=0;points=[];autosize=1;strokeColor=none;fillColor=none;" parent="WIyWlLk6GJQsqaUBKTNV-1" vertex="1">
          <mxGeometry x="144" y="180" width="30" height="30" as="geometry" />
        </mxCell>
        <mxCell id="JuM62VpfZjrxUYvz8Qyw-18" value="1" style="text;html=1;align=center;verticalAlign=middle;resizable=0;points=[];autosize=1;strokeColor=none;fillColor=none;" parent="WIyWlLk6GJQsqaUBKTNV-1" vertex="1">
          <mxGeometry x="160" y="555" width="30" height="30" as="geometry" />
        </mxCell>
        <mxCell id="JuM62VpfZjrxUYvz8Qyw-19" value="" style="endArrow=open;endFill=1;endSize=12;html=1;rounded=0;exitX=0.002;exitY=0.438;exitDx=0;exitDy=0;exitPerimeter=0;" parent="WIyWlLk6GJQsqaUBKTNV-1" source="NhaR2hyR2R-Psau6ybFk-10" edge="1">
          <mxGeometry width="160" relative="1" as="geometry">
            <mxPoint x="201" y="580" as="sourcePoint" />
            <mxPoint x="174" y="180" as="targetPoint" />
            <Array as="points">
              <mxPoint x="20" y="580" />
              <mxPoint x="20" y="180" />
            </Array>
          </mxGeometry>
        </mxCell>
        <mxCell id="JuM62VpfZjrxUYvz8Qyw-20" value="1" style="text;html=1;align=center;verticalAlign=middle;resizable=0;points=[];autosize=1;strokeColor=none;fillColor=none;" parent="WIyWlLk6GJQsqaUBKTNV-1" vertex="1">
          <mxGeometry x="674" y="90" width="30" height="30" as="geometry" />
        </mxCell>
        <mxCell id="JuM62VpfZjrxUYvz8Qyw-21" value="1" style="text;html=1;align=center;verticalAlign=middle;resizable=0;points=[];autosize=1;strokeColor=none;fillColor=none;" parent="WIyWlLk6GJQsqaUBKTNV-1" vertex="1">
          <mxGeometry x="710" y="320" width="30" height="30" as="geometry" />
        </mxCell>
        <mxCell id="JuM62VpfZjrxUYvz8Qyw-22" value="" style="endArrow=open;endFill=1;endSize=12;html=1;rounded=0;exitX=0.333;exitY=0.959;exitDx=0;exitDy=0;exitPerimeter=0;entryX=0.995;entryY=0.448;entryDx=0;entryDy=0;entryPerimeter=0;" parent="WIyWlLk6GJQsqaUBKTNV-1" source="JuM62VpfZjrxUYvz8Qyw-21" target="NhaR2hyR2R-Psau6ybFk-2" edge="1">
          <mxGeometry width="160" relative="1" as="geometry">
            <mxPoint x="710" y="342" as="sourcePoint" />
            <mxPoint x="710" y="260" as="targetPoint" />
            <Array as="points">
              <mxPoint x="720" y="120" />
            </Array>
          </mxGeometry>
        </mxCell>
        <mxCell id="JuM62VpfZjrxUYvz8Qyw-23" value="1" style="text;html=1;align=center;verticalAlign=middle;resizable=0;points=[];autosize=1;strokeColor=none;fillColor=none;" parent="WIyWlLk6GJQsqaUBKTNV-1" vertex="1">
          <mxGeometry x="591" y="223" width="30" height="30" as="geometry" />
        </mxCell>
        <mxCell id="JuM62VpfZjrxUYvz8Qyw-24" value="[*]" style="text;html=1;align=center;verticalAlign=middle;resizable=0;points=[];autosize=1;strokeColor=none;fillColor=none;" parent="WIyWlLk6GJQsqaUBKTNV-1" vertex="1">
          <mxGeometry x="591" y="163" width="30" height="30" as="geometry" />
        </mxCell>
        <mxCell id="JuM62VpfZjrxUYvz8Qyw-25" value="" style="endArrow=open;endFill=1;endSize=12;html=1;rounded=0;exitX=0.36;exitY=-0.016;exitDx=0;exitDy=0;entryX=0.75;entryY=1;entryDx=0;entryDy=0;exitPerimeter=0;" parent="WIyWlLk6GJQsqaUBKTNV-1" source="NhaR2hyR2R-Psau6ybFk-14" edge="1">
          <mxGeometry width="160" relative="1" as="geometry">
            <mxPoint x="590" y="218" as="sourcePoint" />
            <mxPoint x="590" y="170" as="targetPoint" />
          </mxGeometry>
        </mxCell>
        <mxCell id="JuM62VpfZjrxUYvz8Qyw-26" value="Use" style="endArrow=open;endSize=12;dashed=1;html=1;rounded=0;exitX=0.5;exitY=1;exitDx=0;exitDy=0;" parent="WIyWlLk6GJQsqaUBKTNV-1" edge="1">
          <mxGeometry width="160" relative="1" as="geometry">
            <mxPoint x="621" y="400" as="sourcePoint" />
            <mxPoint x="621" y="440" as="targetPoint" />
          </mxGeometry>
        </mxCell>
        <mxCell id="JuM62VpfZjrxUYvz8Qyw-27" value="Use" style="endArrow=open;endSize=12;dashed=1;html=1;rounded=0;exitX=1;exitY=0.5;exitDx=0;exitDy=0;entryX=1.008;entryY=0.673;entryDx=0;entryDy=0;entryPerimeter=0;" parent="WIyWlLk6GJQsqaUBKTNV-1" source="NhaR2hyR2R-Psau6ybFk-14" target="NhaR2hyR2R-Psau6ybFk-8" edge="1">
          <mxGeometry width="160" relative="1" as="geometry">
            <mxPoint x="703.31" y="270" as="sourcePoint" />
            <mxPoint x="703.31" y="350" as="targetPoint" />
            <Array as="points">
              <mxPoint x="750" y="272" />
              <mxPoint x="750" y="380" />
              <mxPoint x="750" y="487" />
            </Array>
          </mxGeometry>
        </mxCell>
        <mxCell id="JuM62VpfZjrxUYvz8Qyw-28" value="Use" style="endArrow=open;endSize=12;dashed=1;html=1;rounded=0;exitX=0.477;exitY=-0.015;exitDx=0;exitDy=0;entryX=0.5;entryY=1;entryDx=0;entryDy=0;exitPerimeter=0;" parent="WIyWlLk6GJQsqaUBKTNV-1" source="NhaR2hyR2R-Psau6ybFk-11" edge="1">
          <mxGeometry width="160" relative="1" as="geometry">
            <mxPoint x="620.46" y="570" as="sourcePoint" />
            <mxPoint x="620.46" y="510" as="targetPoint" />
          </mxGeometry>
        </mxCell>
        <mxCell id="JuM62VpfZjrxUYvz8Qyw-29" value="" style="endArrow=open;endFill=1;endSize=12;html=1;rounded=0;exitX=-0.007;exitY=0.606;exitDx=0;exitDy=0;exitPerimeter=0;" parent="WIyWlLk6GJQsqaUBKTNV-1" source="NhaR2hyR2R-Psau6ybFk-11" edge="1">
          <mxGeometry width="160" relative="1" as="geometry">
            <mxPoint x="450" y="555" as="sourcePoint" />
            <mxPoint x="480" y="173" as="targetPoint" />
            <Array as="points">
              <mxPoint x="480" y="628" />
              <mxPoint x="480" y="540" />
              <mxPoint x="480" y="400" />
            </Array>
          </mxGeometry>
        </mxCell>
        <mxCell id="JuM62VpfZjrxUYvz8Qyw-30" value="1" style="text;html=1;align=center;verticalAlign=middle;resizable=0;points=[];autosize=1;strokeColor=none;fillColor=none;" parent="WIyWlLk6GJQsqaUBKTNV-1" vertex="1">
          <mxGeometry x="490" y="594" width="30" height="30" as="geometry" />
        </mxCell>
        <mxCell id="JuM62VpfZjrxUYvz8Qyw-31" value="[*]" style="text;html=1;align=center;verticalAlign=middle;resizable=0;points=[];autosize=1;strokeColor=none;fillColor=none;" parent="WIyWlLk6GJQsqaUBKTNV-1" vertex="1">
          <mxGeometry x="480" y="163" width="30" height="30" as="geometry" />
        </mxCell>
        <mxCell id="JuM62VpfZjrxUYvz8Qyw-32" value="Use" style="endArrow=open;endSize=12;dashed=1;html=1;rounded=0;exitX=-0.007;exitY=0.566;exitDx=0;exitDy=0;exitPerimeter=0;" parent="WIyWlLk6GJQsqaUBKTNV-1" edge="1">
          <mxGeometry width="160" relative="1" as="geometry">
            <mxPoint x="518.3199999999999" y="480" as="sourcePoint" />
            <mxPoint x="464" y="141" as="targetPoint" />
            <Array as="points">
              <mxPoint x="460" y="480" />
              <mxPoint x="460" y="320" />
              <mxPoint x="420" y="141" />
            </Array>
            <mxPoint as="offset" />
          </mxGeometry>
        </mxCell>
        <mxCell id="JuM62VpfZjrxUYvz8Qyw-33" value="" style="endArrow=open;endFill=1;endSize=12;html=1;rounded=0;exitX=0.061;exitY=-0.003;exitDx=0;exitDy=0;exitPerimeter=0;entryX=0.006;entryY=0.571;entryDx=0;entryDy=0;entryPerimeter=0;" parent="WIyWlLk6GJQsqaUBKTNV-1" source="NhaR2hyR2R-Psau6ybFk-3" target="NhaR2hyR2R-Psau6ybFk-0" edge="1">
          <mxGeometry width="160" relative="1" as="geometry">
            <mxPoint x="96" y="680" as="sourcePoint" />
            <mxPoint x="100" y="140" as="targetPoint" />
            <Array as="points">
              <mxPoint x="30" y="430" />
              <mxPoint x="30" y="140" />
              <mxPoint x="100" y="140" />
            </Array>
          </mxGeometry>
        </mxCell>
        <mxCell id="JuM62VpfZjrxUYvz8Qyw-34" value="[*]" style="text;html=1;align=center;verticalAlign=middle;resizable=0;points=[];autosize=1;strokeColor=none;fillColor=none;" parent="WIyWlLk6GJQsqaUBKTNV-1" vertex="1">
          <mxGeometry x="144" y="140" width="30" height="30" as="geometry" />
        </mxCell>
        <mxCell id="JuM62VpfZjrxUYvz8Qyw-35" value="1" style="text;html=1;align=center;verticalAlign=middle;resizable=0;points=[];autosize=1;strokeColor=none;fillColor=none;" parent="WIyWlLk6GJQsqaUBKTNV-1" vertex="1">
          <mxGeometry x="30" y="700" width="30" height="30" as="geometry" />
        </mxCell>
        <mxCell id="JuM62VpfZjrxUYvz8Qyw-36" value="Use" style="endArrow=open;endSize=12;dashed=1;html=1;rounded=0;exitX=0.237;exitY=1;exitDx=0;exitDy=0;exitPerimeter=0;entryX=0.677;entryY=0.006;entryDx=0;entryDy=0;entryPerimeter=0;" parent="WIyWlLk6GJQsqaUBKTNV-1" source="NhaR2hyR2R-Psau6ybFk-10" target="NhaR2hyR2R-Psau6ybFk-3" edge="1">
          <mxGeometry width="160" relative="1" as="geometry">
            <mxPoint x="280" y="724" as="sourcePoint" />
            <mxPoint x="243" y="730" as="targetPoint" />
            <mxPoint as="offset" />
          </mxGeometry>
        </mxCell>
        <mxCell id="JuM62VpfZjrxUYvz8Qyw-37" value="Use" style="endArrow=open;endSize=12;dashed=1;html=1;rounded=0;entryX=-0.004;entryY=0.659;entryDx=0;entryDy=0;entryPerimeter=0;" parent="WIyWlLk6GJQsqaUBKTNV-1" target="NhaR2hyR2R-Psau6ybFk-7" edge="1">
          <mxGeometry width="160" relative="1" as="geometry">
            <mxPoint x="140" y="728" as="sourcePoint" />
            <mxPoint x="140" y="460" as="targetPoint" />
            <Array as="points">
              <mxPoint x="140" y="456" />
            </Array>
            <mxPoint as="offset" />
          </mxGeometry>
        </mxCell>
        <mxCell id="JuM62VpfZjrxUYvz8Qyw-38" value="" style="endArrow=open;endFill=1;endSize=12;html=1;rounded=0;entryX=1.003;entryY=0.885;entryDx=0;entryDy=0;entryPerimeter=0;exitX=1.001;exitY=0.352;exitDx=0;exitDy=0;exitPerimeter=0;" parent="WIyWlLk6GJQsqaUBKTNV-1" target="NhaR2hyR2R-Psau6ybFk-2" edge="1" source="NhaR2hyR2R-Psau6ybFk-4">
          <mxGeometry width="160" relative="1" as="geometry">
            <mxPoint x="720" y="768" as="sourcePoint" />
            <mxPoint x="760" y="160" as="targetPoint" />
            <Array as="points">
              <mxPoint x="800" y="769" />
              <mxPoint x="800" y="480" />
              <mxPoint x="800" y="160" />
            </Array>
          </mxGeometry>
        </mxCell>
        <mxCell id="JuM62VpfZjrxUYvz8Qyw-39" value="[*]" style="text;html=1;align=center;verticalAlign=middle;resizable=0;points=[];autosize=1;strokeColor=none;fillColor=none;" parent="WIyWlLk6GJQsqaUBKTNV-1" vertex="1">
          <mxGeometry x="674" y="130" width="30" height="30" as="geometry" />
        </mxCell>
        <mxCell id="JuM62VpfZjrxUYvz8Qyw-40" value="1" style="text;html=1;align=center;verticalAlign=middle;resizable=0;points=[];autosize=1;strokeColor=none;fillColor=none;" parent="WIyWlLk6GJQsqaUBKTNV-1" vertex="1">
          <mxGeometry x="722" y="740" width="30" height="30" as="geometry" />
        </mxCell>
        <mxCell id="JuM62VpfZjrxUYvz8Qyw-41" value="Use" style="endArrow=open;endSize=12;dashed=1;html=1;rounded=0;exitX=0.14;exitY=0.989;exitDx=0;exitDy=0;exitPerimeter=0;" parent="WIyWlLk6GJQsqaUBKTNV-1" edge="1">
          <mxGeometry width="160" relative="1" as="geometry">
            <mxPoint x="600" y="660" as="sourcePoint" />
            <mxPoint x="601" y="730" as="targetPoint" />
            <mxPoint as="offset" />
          </mxGeometry>
        </mxCell>
        <mxCell id="JuM62VpfZjrxUYvz8Qyw-42" value="Use" style="endArrow=open;endSize=12;dashed=1;html=1;rounded=0;entryX=-0.008;entryY=0.832;entryDx=0;entryDy=0;entryPerimeter=0;" parent="WIyWlLk6GJQsqaUBKTNV-1" target="NhaR2hyR2R-Psau6ybFk-8" edge="1">
          <mxGeometry width="160" relative="1" as="geometry">
            <mxPoint x="460" y="730" as="sourcePoint" />
            <mxPoint x="510" y="498" as="targetPoint" />
            <Array as="points">
              <mxPoint x="461" y="498" />
            </Array>
            <mxPoint as="offset" />
          </mxGeometry>
        </mxCell>
      </root>
    </mxGraphModel>
  </diagram>
</mxfile>
